<svg version="1.1" id="Layer_1" xmlns="http://www.w3.org/2000/svg" xmlns:xlink="http://www.w3.org/1999/xlink" x="0px" y="0px"
	 width="100%" viewBox="0 0 64 64" enable-background="new 0 0 64 64" xml:space="preserve">
<path fill="#000000" opacity="1.000000" stroke="none" 
	d="
M32.000000,1.000000 
	C42.934551,1.000000 53.869106,1.000000 65.000000,1.000000 
	C65.000000,14.353587 65.000000,27.708136 64.714462,41.826286 
	C61.095081,38.574745 58.098194,34.061825 51.546410,34.086330 
	C42.393837,32.974274 37.202396,37.486450 33.582565,44.980637 
	C32.857857,45.056103 32.446114,45.112728 31.790642,45.086868 
	C31.380209,44.964695 31.213509,44.924999 31.025669,44.516258 
	C30.684807,43.066666 30.365084,41.986122 30.031132,40.717957 
	C30.016903,40.530331 30.008751,40.154091 30.297029,40.037178 
	C31.103928,39.289139 31.622547,38.658016 32.503899,38.013630 
	C33.855602,36.000072 34.844566,33.999783 35.911819,31.783241 
	C35.990108,31.566996 36.056633,31.111868 36.447708,31.061138 
	C41.399235,30.377611 40.337769,27.672531 39.070015,24.484711 
	C41.003899,18.303902 40.431950,12.792043 37.115257,7.692874 
	C35.588650,5.345827 33.715832,3.223969 32.000000,1.000000 
z"/>
<path fill="#000000" opacity="1.000000" stroke="none" 
	d="
M1.000000,54.000000 
	C1.000000,36.447426 1.000000,18.894855 1.000000,1.000000 
	C6.014014,1.000000 11.035810,1.000000 16.817764,1.287328 
	C12.960391,4.937414 9.092631,8.804810 9.017791,15.026810 
	C8.977765,18.354439 9.113667,21.684183 9.012857,25.345541 
	C7.452364,31.271231 11.213967,31.063810 14.912722,31.418262 
	C15.653906,34.270657 16.323362,36.712318 17.140812,39.484848 
	C17.172935,41.839947 17.057070,43.864182 16.602839,45.839653 
	C14.261994,46.293869 12.014624,46.382015 10.309456,47.388634 
	C7.043500,49.316639 4.085679,51.766613 1.000000,54.000000 
z"/>
<path fill="#C8EFFE" opacity="1.000000" stroke="none" 
	d="
M51.978622,34.161930 
	C58.098194,34.061825 61.095081,38.574745 64.714462,42.294945 
	C65.000000,46.689255 65.000000,51.378513 64.714737,56.239037 
	C61.952984,59.273537 59.476494,62.136768 57.000000,65.000000 
	C55.611111,65.000000 54.222221,65.000000 52.195171,64.737854 
	C41.814667,61.434429 37.162186,48.543217 43.223408,40.902294 
	C45.444489,38.102348 49.020626,36.377312 51.978622,34.161930 
M44.606319,56.144432 
	C46.001850,58.962513 47.858593,58.436588 49.720112,56.744396 
	C51.426735,55.193008 53.199772,53.645180 54.563934,51.813122 
	C55.358402,50.746170 55.406689,49.123604 55.790718,47.751026 
	C54.259361,47.659252 52.115177,46.881676 51.309319,47.601788 
	C48.687687,49.944462 46.555477,52.834835 44.606319,56.144432 
z"/>
<path fill="#A79BA7" opacity="1.000000" stroke="none" 
	d="
M9.170174,25.012974 
	C9.113667,21.684183 8.977765,18.354439 9.017791,15.026810 
	C9.092631,8.804810 12.960391,4.937414 17.288963,1.287328 
	C21.689255,1.000000 26.378511,1.000000 31.533882,1.000000 
	C33.715832,3.223969 35.588650,5.345827 37.115257,7.692874 
	C40.431950,12.792043 41.003899,18.303902 38.756874,24.415062 
	C37.661827,24.481506 36.858559,24.203020 36.018433,23.635473 
	C35.684303,22.880686 35.387028,22.414959 35.059353,21.526630 
	C34.975464,19.410330 34.921974,17.716629 34.874130,15.630781 
	C32.757595,14.514662 30.678864,13.456876 28.499378,13.173202 
	C26.781080,12.949554 24.948063,13.848825 23.149376,13.948048 
	C19.984894,14.122612 15.410311,12.827114 13.992987,14.424562 
	C12.259041,16.378872 13.166700,20.676924 12.598320,23.974922 
	C11.233068,24.329863 10.201620,24.671417 9.170174,25.012974 
z"/>
<path fill="#F8F3F1" opacity="1.000000" stroke="none" 
	d="
M32.034374,45.169353 
	C32.446114,45.112728 32.857857,45.056103 33.622135,45.427704 
	C33.002018,54.914001 36.602856,61.338127 45.000000,65.000000 
	C32.312439,65.000000 19.624876,65.000000 6.563240,64.612823 
	C8.009807,63.816807 9.877179,63.547100 11.636637,62.956112 
	C13.103105,62.463539 14.442986,61.594097 15.838934,60.891579 
	C14.537575,60.260464 13.280838,59.496876 11.921162,59.038895 
	C10.771880,58.651779 9.503321,58.618774 7.861262,58.362522 
	C9.292420,52.538383 13.112891,50.610306 18.274363,50.223137 
	C20.330008,54.812649 22.123993,59.166412 24.497885,64.927528 
	C27.358576,57.427750 29.696476,51.298553 32.034374,45.169353 
z"/>
<path fill="#9BE6FC" opacity="1.000000" stroke="none" 
	d="
M45.437500,65.000000 
	C36.602856,61.338127 33.002018,54.914001 33.935104,45.408867 
	C37.202396,37.486450 42.393837,32.974274 51.546410,34.086330 
	C49.020626,36.377312 45.444489,38.102348 43.223408,40.902294 
	C37.162186,48.543217 41.814667,61.434429 51.778503,64.737854 
	C49.958332,65.000000 47.916668,65.000000 45.437500,65.000000 
z"/>
<path fill="#F4EBE7" opacity="1.000000" stroke="none" 
	d="
M18.012705,49.987389 
	C13.112891,50.610306 9.292420,52.538383 7.861262,58.362522 
	C9.503321,58.618774 10.771880,58.651779 11.921162,59.038895 
	C13.280838,59.496876 14.537575,60.260464 15.838934,60.891579 
	C14.442986,61.594097 13.103105,62.463539 11.636637,62.956112 
	C9.877179,63.547100 8.009807,63.816807 6.094583,64.612823 
	C4.383431,65.000000 2.766863,65.000000 1.000000,65.000000 
	C1.000000,61.656113 1.000000,58.311012 1.000000,54.482956 
	C4.085679,51.766613 7.043500,49.316639 10.309456,47.388634 
	C12.014624,46.382015 14.261994,46.293869 16.829260,45.966114 
	C17.605284,46.407368 17.816523,46.673393 18.024036,47.320549 
	C18.017776,48.463585 18.015242,49.225487 18.012705,49.987389 
z"/>
<path fill="#000000" opacity="1.000000" stroke="none" 
	d="
M57.494736,65.000000 
	C59.476494,62.136768 61.952984,59.273537 64.714737,56.705154 
	C65.000000,59.582455 65.000000,62.164913 65.000000,65.000000 
	C62.666080,65.000000 60.327774,65.000000 57.494736,65.000000 
z"/>
<path fill="#FFE5C2" opacity="1.000000" stroke="none" 
	d="
M34.868484,16.022926 
	C34.921974,17.716629 34.975464,19.410330 34.787773,21.749355 
	C35.021763,23.595728 35.496922,24.796776 35.979485,26.424116 
	C36.010136,28.270895 36.033382,29.691381 36.056633,31.111868 
	C36.056633,31.111868 35.990108,31.566996 35.575188,31.783379 
	C34.489040,31.999464 33.817814,31.999165 33.094929,31.575294 
	C32.467587,30.130871 31.876789,28.218063 31.318569,28.227528 
	C25.902943,28.319307 20.492779,28.733318 15.025961,28.729851 
	C14.627629,27.600943 14.284390,26.797583 14.354158,25.980721 
	C15.514686,24.116606 16.098478,22.175360 17.057922,20.442053 
	C17.935575,18.856506 19.102133,16.365101 20.345003,16.236195 
	C25.141937,15.738681 30.020403,16.027283 34.868484,16.022926 
z"/>
<path fill="#99E6FC" opacity="1.000000" stroke="none" 
	d="
M15.081055,29.055397 
	C20.492779,28.733318 25.902943,28.319307 31.318569,28.227528 
	C31.876789,28.218063 32.467587,30.130871 33.044712,31.965839 
	C32.744495,34.528934 32.442829,36.277916 32.141167,38.026894 
	C31.622547,38.658016 31.103928,39.289139 29.864799,39.977676 
	C25.093801,39.741390 21.043312,39.447685 16.992821,39.153980 
	C16.323362,36.712318 15.653906,34.270657 14.974148,31.096207 
	C15.002915,29.927412 15.041985,29.491405 15.081055,29.055397 
z"/>
<path fill="#C9EFFD" opacity="1.000000" stroke="none" 
	d="
M18.274363,50.223137 
	C18.015242,49.225487 18.017776,48.463585 18.393768,47.339493 
	C19.507866,47.011852 20.248508,47.046402 21.136211,47.374306 
	C22.747972,49.648773 24.175552,50.572704 26.334286,48.278370 
	C27.636377,46.894482 29.458408,45.999805 31.046806,44.885307 
	C31.213509,44.924999 31.380209,44.964695 31.790642,45.086868 
	C29.696476,51.298553 27.358576,57.427750 24.497885,64.927528 
	C22.123993,59.166412 20.330008,54.812649 18.274363,50.223137 
z"/>
<path fill="#FFBF8A" opacity="1.000000" stroke="none" 
	d="
M20.989151,47.080956 
	C20.248508,47.046402 19.507866,47.011852 18.397491,46.958359 
	C17.816523,46.673393 17.605284,46.407368 17.167625,46.014877 
	C17.057070,43.864182 17.172935,41.839947 17.140812,39.484848 
	C21.043312,39.447685 25.093801,39.741390 29.576523,40.094593 
	C30.008751,40.154091 30.016903,40.530331 29.953331,41.086998 
	C27.847027,42.430122 25.697252,43.023621 23.801613,44.075226 
	C22.659727,44.708687 21.913290,46.054985 20.989151,47.080956 
z"/>
<path fill="#FDD2A5" opacity="1.000000" stroke="none" 
	d="
M21.136213,47.374306 
	C21.913290,46.054985 22.659727,44.708687 23.801613,44.075226 
	C25.697252,43.023621 27.847027,42.430122 29.967558,41.274620 
	C30.365084,41.986122 30.684807,43.066666 31.025667,44.516258 
	C29.458408,45.999805 27.636377,46.894482 26.334286,48.278370 
	C24.175552,50.572704 22.747972,49.648773 21.136213,47.374306 
z"/>
<path fill="#FED2A4" opacity="1.000000" stroke="none" 
	d="
M36.447704,31.061138 
	C36.033382,29.691381 36.010136,28.270895 35.991879,26.078732 
	C36.016338,24.846212 36.035812,24.385374 36.055286,23.924534 
	C36.858559,24.203020 37.661827,24.481506 38.778244,24.829639 
	C40.337769,27.672531 41.399235,30.377611 36.447704,31.061138 
z"/>
<path fill="#FEE5C2" opacity="1.000000" stroke="none" 
	d="
M32.503899,38.013630 
	C32.442829,36.277916 32.744495,34.528934 33.096375,32.389412 
	C33.817814,31.999165 34.489040,31.999464 35.496899,31.999626 
	C34.844566,33.999783 33.855602,36.000072 32.503899,38.013630 
z"/>
<path fill="#FFBD86" opacity="1.000000" stroke="none" 
	d="
M15.025961,28.729851 
	C15.041985,29.491405 15.002915,29.927412 14.902420,30.685474 
	C11.213967,31.063810 7.452364,31.271231 9.012857,25.345539 
	C10.201620,24.671417 11.233068,24.329863 12.782270,24.086502 
	C13.513735,24.787872 13.727444,25.391047 13.941153,25.994221 
	C14.284390,26.797583 14.627629,27.600943 15.025961,28.729851 
z"/>
<path fill="#FDE980" opacity="1.000000" stroke="none" 
	d="
M44.420609,55.829418 
	C46.555477,52.834835 48.687687,49.944462 51.309319,47.601788 
	C52.115177,46.881676 54.259361,47.659252 55.790718,47.751030 
	C55.406689,49.123604 55.358402,50.746170 54.563934,51.813122 
	C53.199772,53.645180 51.426735,55.193008 49.720112,56.744396 
	C47.858593,58.436588 46.001850,58.962513 44.420609,55.829418 
z"/>
<path fill="#FED3A5" opacity="1.000000" stroke="none" 
	d="
M14.354158,25.980721 
	C13.727444,25.391047 13.513735,24.787872 13.116076,24.073118 
	C13.166700,20.676924 12.259041,16.378872 13.992987,14.424562 
	C15.410311,12.827114 19.984894,14.122612 23.149376,13.948048 
	C24.948063,13.848825 26.781080,12.949554 28.499378,13.173202 
	C30.678864,13.456876 32.757595,14.514662 34.874130,15.630780 
	C30.020403,16.027283 25.141937,15.738681 20.345003,16.236195 
	C19.102133,16.365101 17.935575,18.856506 17.057922,20.442053 
	C16.098478,22.175360 15.514686,24.116606 14.354158,25.980721 
z"/>
<path fill="#FEE5C2" opacity="1.000000" stroke="none" 
	d="
M36.018433,23.635473 
	C36.035812,24.385374 36.016338,24.846212 35.984474,25.652439 
	C35.496922,24.796776 35.021763,23.595728 34.818176,22.171955 
	C35.387028,22.414959 35.684303,22.880686 36.018433,23.635473 
z"/>
</svg>