<?xml version="1.0" encoding="utf-8"?>
<!-- Generator: Adobe Illustrator 24.0.2, SVG Export Plug-In . SVG Version: 6.00 Build 0)  -->
<svg version="1.1" xmlns="http://www.w3.org/2000/svg" xmlns:xlink="http://www.w3.org/1999/xlink" x="0px" y="0px"
	 viewBox="0 0 146 142.4" style="enable-background:new 0 0 146 142.4;" xml:space="preserve">
<style type="text/css">
	.st0{fill:#FFFFFF;}
</style>
<g id="Layer_2">
</g>
<g id="Layer_1">
	<g>
		<path class="st0" d="M128.7,50.7L93.8,15.8C91,13,91,8.4,93.8,5.6l0,0c2.8-2.8,7.4-2.8,10.2,0L139,40.5c2.8,2.8,2.8,7.4,0,10.2
			l0,0C136.1,53.6,131.5,53.6,128.7,50.7z"/>
		<path class="st0" d="M109.9,76.3L68.3,34.6c-3-3-3-7.8,0-10.7l0,0c3-3,7.8-3,10.7,0l41.6,41.6c3,3,3,7.8,0,10.7l0,0
			C117.7,79.2,112.9,79.2,109.9,76.3z"/>
		
			<rect x="95.3" y="23.8" transform="matrix(0.7071 0.7071 -0.7071 0.7071 58.0428 -64.3089)" class="st0" width="22.8" height="28.2"/>
		<path class="st0" d="M10.9,133.7L10.9,133.7c-3.2-3.2-3.2-8.4,0-11.6l16.9-16.9l11.6,11.6l-16.9,16.9
			C19.3,136.9,14.1,136.9,10.9,133.7z"/>
		<path class="st0" d="M70.1,34.7L23.8,81c-0.9,0.9-1.3,2.1-1.1,3.4l5.7,31.3l31.7,6.2c1.2,0.2,2.5-0.2,3.4-1l46.2-46.2L70.1,34.7z
			 M55.7,111l-16.2-3.1c-1.6-0.3-2.9-1.6-3.1-3.2l-2.8-16c-0.2-1.2,0.2-2.5,1.1-3.4l42.5-42.5l24.5,24.5l-42.5,42.5
			C58.3,110.8,57,111.2,55.7,111z"/>
		<path class="st0" d="M89,84.9L78.5,74.4c-0.2-0.2-0.3-0.4-0.3-0.7l0.1-2.2c0-0.5,0.4-0.9,0.8-0.9l2.4-0.3c0.3,0,0.6,0.1,0.8,0.3
			L92.8,81L89,84.9z"/>
		<path class="st0" d="M81.5,92.3L71,81.8c-0.2-0.2-0.3-0.4-0.3-0.7l0.1-2.2c0-0.5,0.4-0.9,0.8-0.9l2.4-0.3c0.3,0,0.6,0.1,0.8,0.3
			l10.5,10.5L81.5,92.3z"/>
		<path class="st0" d="M74.3,99.6L63.8,89.1c-0.2-0.2-0.3-0.4-0.3-0.7l0.1-2.2c0-0.5,0.4-0.9,0.8-0.9l2.4-0.3c0.3,0,0.6,0.1,0.8,0.3
			l10.5,10.5L74.3,99.6z"/>
		<path class="st0" d="M67.2,106.7L56.7,96.2c-0.2-0.2-0.3-0.4-0.3-0.7l0.1-2.2c0-0.5,0.4-0.9,0.8-0.9l2.4-0.3
			c0.3,0,0.6,0.1,0.8,0.3L71,102.8L67.2,106.7z"/>
	</g>
</g>
</svg>
