<?xml version="1.0" encoding="utf-8"?>
<!-- Generator: Adobe Illustrator 24.0.2, SVG Export Plug-In . SVG Version: 6.00 Build 0)  -->
<svg version="1.1" xmlns="http://www.w3.org/2000/svg" xmlns:xlink="http://www.w3.org/1999/xlink" x="0px" y="0px"
	 viewBox="0 0 49.7 64.9" style="enable-background:new 0 0 49.7 64.9;" xml:space="preserve">
<style type="text/css">
	.st0{fill:#FFFFFF;}
</style>
<g id="Layer_2">
</g>
<g id="Layer_1">
	<path class="st0" d="M46.4,2.6H3.2C1.4,2.6,0,4,0,5.8v55.8c0,1.8,1.4,3.2,3.2,3.2h43.2c1.8,0,3.2-1.4,3.2-3.2V5.8
		C49.7,4,48.2,2.6,46.4,2.6z M45.3,61.2h-41v-55h41V61.2z"/>
	<path class="st0" d="M32.6,8.2H17.1c-0.9,0-1.7-0.7-1.7-1.7V1.7c0-0.9,0.7-1.7,1.7-1.7h15.5c0.9,0,1.7,0.7,1.7,1.7v4.9
		C34.2,7.5,33.5,8.2,32.6,8.2z"/>
</g>
</svg>
