<?xml version="1.0" encoding="utf-8"?>
<!-- Generator: Adobe Illustrator 24.0.2, SVG Export Plug-In . SVG Version: 6.00 Build 0)  -->
<svg version="1.1" id="Layer_1" xmlns="http://www.w3.org/2000/svg" xmlns:xlink="http://www.w3.org/1999/xlink" x="0px" y="0px"
	 viewBox="0 0 59 59.1" style="enable-background:new 0 0 59 59.1;" xml:space="preserve">
<style type="text/css">
	.st0{fill:#FFFFFF;}
</style>
<g>
	<path class="st0" d="M29.5,0.1C13.2,0.1,0,13.3,0,29.6s13.2,29.5,29.5,29.5C45.8,59.1,59,45.9,59,29.6S45.8,0.1,29.5,0.1z M29.5,55
		c-14,0-25.4-11.4-25.4-25.4S15.5,4.2,29.5,4.2s25.4,11.4,25.4,25.4S43.6,55,29.5,55z"/>
	<polygon class="st0" points="45.5,20.3 38.8,13.6 29.5,22.9 20.3,13.6 13.6,20.3 22.9,29.6 13.6,38.8 20.3,45.5 29.5,36.2 
		38.8,45.5 45.5,38.8 36.2,29.6 	"/>
</g>
</svg>
