<?xml version="1.0" encoding="utf-8"?>
<!-- Generator: Adobe Illustrator 24.0.2, SVG Export Plug-In . SVG Version: 6.00 Build 0)  -->
<svg version="1.1" id="Layer_1" xmlns="http://www.w3.org/2000/svg" xmlns:xlink="http://www.w3.org/1999/xlink" x="0px" y="0px"
	 viewBox="0 0 50.4 66.2" style="enable-background:new 0 0 50.4 66.2;" xml:space="preserve">
<style type="text/css">
	.st0{fill:#FFFFFF;}
</style>
<g id="Layer_1_1_">
	<path class="st0" d="M46.8,3H3.6C1.8,3,0.4,4.4,0.4,6.2V62c0,1.8,1.4,3.2,3.2,3.2h43.2c1.8,0,3.2-1.4,3.2-3.2V6.2
		C50.1,4.4,48.6,3,46.8,3z M45.7,61.6h-41v-55h41V61.6z"/>
	<path class="st0" d="M33,8.6H17.5c-0.9,0-1.7-0.7-1.7-1.7V2.1c0-0.9,0.7-1.7,1.7-1.7H33c0.9,0,1.7,0.7,1.7,1.7V7
		C34.6,7.9,33.9,8.6,33,8.6z"/>
</g>
<g>
	<path class="st0" d="M25.2,16.6C16.2,16.6,9,23.9,9,32.8S16.2,49,25.2,49c8.9,0,16.2-7.2,16.2-16.2S34.1,16.6,25.2,16.6z
		 M25.2,46.8c-7.7,0-13.9-6.2-13.9-13.9s6.2-13.9,13.9-13.9s13.9,6.2,13.9,13.9S32.9,46.8,25.2,46.8z"/>
	<polygon class="st0" points="33.9,27.7 30.2,24 25.2,29.1 20.1,24 16.4,27.7 21.5,32.8 16.4,37.9 20.1,41.6 25.2,36.5 30.2,41.6 
		33.9,37.9 28.8,32.8 	"/>
</g>
</svg>
