<?xml version="1.0" encoding="utf-8"?>
<!-- Generator: Adobe Illustrator 24.0.2, SVG Export Plug-In . SVG Version: 6.00 Build 0)  -->
<svg version="1.1" id="Layer_1" xmlns="http://www.w3.org/2000/svg" xmlns:xlink="http://www.w3.org/1999/xlink" x="0px" y="0px"
	 viewBox="0 0 66.3 55.4" style="enable-background:new 0 0 66.3 55.4;" xml:space="preserve">
<style type="text/css">
	.st0{fill:#FFFFFF;}
</style>
<g transform="translate(0.000000,111.000000) scale(0.100000,-0.100000)">
</g>
<path class="st0" d="M55.2,11.7h-9.5V0.5H20.6v11.1h-9.5c-5.7,0-10.3,4.6-10.3,10.3v22.7c0,5.7,4.6,10.3,10.3,10.3h44.1
	c5.7,0,10.3-4.6,10.3-10.3V21.9C65.5,16.3,60.9,11.7,55.2,11.7z M25.4,5.3h15.4v6.3H25.4V5.3z M56.2,36.5h-7.4v7.4h-5.9v-7.4h-7.4
	v-5.9h7.4v-7.4h5.9v7.4h7.4V36.5z"/>
</svg>
