<?xml version="1.0" encoding="utf-8"?>
<!-- Generator: Adobe Illustrator 24.0.2, SVG Export Plug-In . SVG Version: 6.00 Build 0)  -->
<svg version="1.1" xmlns="http://www.w3.org/2000/svg" xmlns:xlink="http://www.w3.org/1999/xlink" x="0px" y="0px"
	 viewBox="0 0 103.2 139.7" style="enable-background:new 0 0 103.2 139.7;" xml:space="preserve">
<style type="text/css">
	.st0{display:none;}
	.st1{display:inline;}
	.st2{fill:#C03734;}
	.st3{fill:#FFFFFF;}
</style>
<g id="Layer_1" class="st0">
	
		<image style="display:inline;overflow:visible;" width="54" height="73" xlink:href="3D008CE.png"  transform="matrix(1.9134 0 0 1.9134 -113.8164 -3.992210e-02)">
	</image>
	<g id="Layer_2" class="st1">
	</g>
</g>
<g id="Layer_3">
	<g>
		<g>
			<path class="st2" d="M54,84.6c-4.3-11.4-11.1-21.8-20.4-29.7c-9.8-8.5-17.9-12.3-24.1-13.8c-1.5-0.4-3,0.3-3.8,1.7
				c-1.6,3-2.5,6.3-2.5,9.8v0v27.1c0,7.8,2.4,15.3,6.8,21.7l6.2,8.9c6.7,9.7,15.4,17.8,25.6,23.8l0.3,0.2c3.9,2.3,8.3,3.5,12.8,3.5
				c8.3,0,16.1-4.1,20.8-10.9l6.8-9.9c0.8-1.2,0.4-2.9-1-3.5C64.8,106,57.3,93.7,54,84.6z"/>
			<path class="st2" d="M60.2,3.7c-1.1,19.2-1.6,54.8,14.3-0.2c0.4-1.4,1.8-2.3,3.2-2c3.8,0.6,6.8,1.3,8.9,1.8
				c1.8,0.5,2.6,2.4,1.8,4l-2.8,5.6c-1.9,3.7-2.8,7.9-2.7,12.1c0.1,4.8,2.4,9.1,5.9,12.4c4.4,4.2,6.6,10.3,5.6,16.5l-2.3,15.3
				c-6.2,8.1-19.8,19.2-40,0.9C34.2,53.9,20.5,43.4,12.9,37.9c-1-0.7-1-2.1-0.1-2.9l4.5-3.7c3.1-2.5,4.5-6.5,3.5-10.4l-3-12.6
				c-0.3-1.4,0.5-2.9,1.9-3.2c3.8-1,7.4-1.8,11-2.5c1.5-0.3,2.9,0.7,3.2,2.2c2.6,18.5,9.5,57.2,14.2-1c0.1-1,0.8-1.7,1.8-1.7
				l8.3-0.4C59.4,1.7,60.3,2.6,60.2,3.7z"/>
		</g>
		<path class="st3" d="M99.2,56c0,10.7-0.5,41.4-5.3,55.4c-1.1,3.2-4.5,5-7.6,3.9c-6.1-2.1-16.2-6.4-21.3-13.1
			c-2.2-2.9-1.7-7.2,1.1-9.5c0,0,0.1-0.1,0.1-0.1c9-7.2,22.1-11.1,31.6-36.9C98.2,55,99.2,55.3,99.2,56z"/>
	</g>
</g>
</svg>
