<?xml version="1.0" encoding="utf-8"?>
<!-- Generator: Adobe Illustrator 24.0.2, SVG Export Plug-In . SVG Version: 6.00 Build 0)  -->
<svg version="1.1" id="Layer_1" xmlns="http://www.w3.org/2000/svg" xmlns:xlink="http://www.w3.org/1999/xlink" x="0px" y="0px"
	 viewBox="0 0 307 486" style="enable-background:new 0 0 307 486;" xml:space="preserve">
<style type="text/css">
	.st0{display:none;}
	.st1{display:inline;}
	.st2{fill:none;stroke:#68AFD7;stroke-width:11.3386;stroke-miterlimit:10;}
	.st3{fill:none;stroke:#68AFD7;stroke-width:11.3386;stroke-linecap:round;stroke-miterlimit:10;}
	.st4{fill:none;stroke:#000000;stroke-width:11.3386;stroke-miterlimit:10;}
	.st5{fill:none;stroke:#C03734;stroke-width:11.3386;stroke-linecap:round;stroke-miterlimit:10;}
</style>
<g id="Layer_1_1_" class="st0">
	<g transform="translate(0.000000,512.000000) scale(0.100000,-0.100000)" class="st1">
		<path d="M3280,4554c0,233-4,351-12,378c-6,22-31,62-55,88c-76,85-12,80-1057,79c-641-1-932-4-956-12c-49-16-133-102-148-153
			c-17-60-17-3128,0-3188c16-55,99-138,154-154c31-9,267-12,956-12c1038,0,975-5,1051,80c57,64,67,101,67,264 M3120,1935
			c0-142-1-147-25-170l0,0c-15.3-16-36.5-25-58.7-25H2160h-876.3c-22.1,0-43.3,9-58.7,25l0,0l0,0c-16,15.3-25,36.5-25,58.7V3340
			v1551l25,24l24,25h911h911l24-25l25-24"/>
		<path d="M1360,4700v-80h800h800v80v80h-800h-800V4700z"/>
		<path d="M1520,3980v-160h80h80v80v80h80h80v80v80h-160h-160V3980z"/>
		<path d="M2480,4060v-80h80h80v-80v-80h80h80v160v160h-160h-160V4060z"/>
		<path d="M1840,3700v-120h120h120v120v120h-120h-120V3700z M2000,3700v-40h-40h-40v40v40h40h40V3700z"/>
		<path d="M2240,3700v-120h120h120v120v120h-120h-120V3700z M2400,3700v-40h-40h-40v40v40h40h40V3700z"/>
		<path d="M1840,3300v-120h120h120v120v120h-120h-120V3300z M2000,3300v-40h-40h-40v40v40h40h40V3300z"/>
		<path d="M2240,3380v-40h40h40v-40v-40h-40h-40v-40v-40h40h40v40v40h40h40v-40v-40h40h40v40v40h-40h-40v40v40h40h40v40v40h-40h-40
			v-40v-40h-40h-40v40v40h-40h-40V3380z"/>
		<path d="M1520,3020v-160h160h160v80v80h-80h-80v80v80h-80h-80V3020z"/>
		<path d="M2640,3100v-80h-80h-80v-80v-80h160h160v160v160h-80h-80V3100z"/>
		<path d="M1360,2140v-80h720h720v80v80h-720h-720V2140z"/>
		<path d="M1945,1955c-16-15-25-36-25-55s9-40,25-55c24-25,26-25,215-25s191,0,215,25c16,15,25,36,25,55s-9,40-25,55
			c-24,25-26,25-215,25S1969,1980,1945,1955z"/>
	</g>
</g>
<g id="Layer_2_1_">
	<path d="M153.8,4.9"/>
	<path class="st2" d="M268.3,471.3h-229c-16.4,0-29.6-13.3-29.6-29.6V39.8c0-16.4,13.3-29.6,29.6-29.6h229
		c16.4,0,29.6,13.3,29.6,29.6v401.9C298,458.1,284.7,471.3,268.3,471.3z"/>
	<path class="st2" d="M153.8,56.3"/>
	<line class="st3" x1="263.9" y1="57.3" x2="43.8" y2="57.3"/>
	<line class="st3" x1="263.9" y1="403.2" x2="43.8" y2="403.2"/>
	<line class="st3" x1="195.5" y1="435.7" x2="112.2" y2="435.7"/>
	<g>
		<polyline class="st4" points="201.3,141 242.1,141 242.1,181.8 		"/>
		<polyline class="st4" points="65.5,181.8 65.5,143.8 106.3,143.8 		"/>
		<polyline class="st4" points="106.3,325.7 65.5,325.7 65.5,284.9 		"/>
		<polyline class="st4" points="242.1,284.9 242.1,322.9 201.3,322.9 		"/>
	</g>
	<g transform="translate(0.000000,512.000000) scale(0.100000,-0.100000)">
		<path d="M2204.6,2328.3v208.2h-208.2h-208.2v-208.2V2120h208.2h208.2V2328.3z M1871.5,2328.3v124.9h124.9h124.9v-124.9v-124.9
			h-124.9h-124.9V2328.3z"/>
		<path d="M2038.1,2328.3v41.6h-41.6h-41.6v-41.6v-41.6h41.6h41.6V2328.3z"/>
		<path d="M1538.3,2161.7v41.6H1455h-83.3v-41.6V2120h83.3h83.3V2161.7z"/>
		<path d="M1288.4,2328.3v208.2h-208.2H872v-208.2V2120h208.2h208.2V2328.3z M955.2,2328.3v124.9h124.9H1205v-124.9v-124.9h-124.9
			H955.2V2328.3z"/>
		<path d="M1121.8,2328.3v41.6h-41.6h-41.6v-41.6v-41.6h41.6h41.6V2328.3z"/>
		<path d="M1704.9,2286.6v83.3h-83.3h-83.3v41.6v41.6h-41.6H1455v-41.6v-41.6h-41.6h-41.6v-41.6v-41.6h124.9h124.9V2245v-41.6h41.6
			h41.6L1704.9,2286.6L1704.9,2286.6z"/>
		<path d="M1704.9,2494.9v41.6h-41.6h-41.6v-41.6v-41.6h41.6h41.6V2494.9z"/>
		<path d="M1455,2578.2v41.6h124.9h124.9v41.6v41.6h-166.6h-166.6v-83.3v-83.3h41.6h41.6v41.8H1455z"/>
		<path d="M2204.6,2786.4V2953H2163h-41.6v-41.6v-41.6h-41.6h-41.6v-41.6v-41.6h41.6h41.6v-83.3V2620h41.6h41.6V2786.4z"/>
		<path d="M2038.1,2661.5v41.6h-41.6h-41.6v-41.6v-41.6h41.6h41.6V2661.5z"/>
		<path d="M1871.5,2703.1v83.3h41.6h41.6v83.3v83.3h-41.6h-41.6v-41.6v-41.6h-83.3h-83.3v41.6v41.6h-83.3h-83.3v-41.6v-41.6h41.6
			h41.6v-41.6v-41.6h83.3h83.3v-83.3V2620h41.6h41.6v83.1H1871.5z"/>
		<path d="M1205.1,2661.5v41.6h41.6h41.6v41.6v41.6h-166.6H955.1v-41.6v-41.6h-41.6h-41.6v-41.6v-41.6h83.3h83.3v41.6v41.6h41.6
			h41.6v-41.6v-41.6h41.6h41.6v41.6H1205.1z"/>
		<path d="M1455,2869.7v83.3h-41.6h-41.6v-83.3v-83.3h41.6h41.6V2869.7z"/>
		<path d="M1288.4,2911.4v41.6h-41.6h-41.6v83.3v83.3h-41.6H1122v-124.9v-124.9h83.3h83.3v41.6H1288.4z"/>
		<path d="M1038.5,2911.4v41.6h-83.3h-83.3v-41.6v-41.6h83.3h83.3V2911.4z"/>
		<path d="M2204.6,3244.6v208.2h-208.2h-208.2v-208.2v-208.2h208.2h208.2V3244.6z M1871.5,3244.6v124.9h124.9h124.9v-124.9v-124.9
			h-124.9h-124.9V3244.6z"/>
		<path d="M2038.1,3244.6v41.6h-41.6h-41.6v-41.6V3203h41.6h41.6V3244.6z"/>
		<path d="M1704.9,3078v41.6h-83.3h-83.3v124.9v124.9h83.3h83.3v41.6v41.6H1580h-125V3411v-41.6h-83.3h-83.3v-41.6v-41.6h83.3h83.3
			v-124.9v-124.9h124.9h124.9v41.6H1704.9z"/>
		<path d="M1371.7,3119.6v83.3H1330h-41.6v-83.3v-83.3h41.6h41.6L1371.7,3119.6L1371.7,3119.6z"/>
		<path d="M955.2,3078v41.6h-41.6H872V3078v-41.6h41.6h41.6V3078z"/>
		<path d="M1704.9,3244.6v41.6h-41.6h-41.6v-41.6V3203h41.6h41.6V3244.6z"/>
		<path d="M1205.1,3327.9v124.9h-41.6h-41.6v-83.3v-83.3h-83.3h-83.3v-41.6V3203h124.9h124.9V3327.9z"/>
		<path d="M1038.5,3411.2v41.6h-83.3h-83.3v-41.6v-41.6h83.3h83.3V3411.2z"/>
	</g>
	<line class="st5" x1="253.9" y1="231.8" x2="53.8" y2="231.8"/>
</g>
</svg>
