<?xml version="1.0" encoding="UTF-8"?>
<svg version="1.1" viewBox="0 0 1000 1000" width="1280" height="1280" xmlns="http://www.w3.org/2000/svg">
<path transform="translate(484,305)" d="m0 0h31l19 2 21 5 22 8 22 11 12 8 13 10 12 11 12 12 13 17 8 13 9 17 8 21 6 22 2 14 1 17v14l-1 18-5 25-7 21-14 29-10 15-11 13-9 10-8 8-14 11-11 8-27 14-25 9-23 5-26 2-28-1-17-3-16-4-19-7-26-13-13-9-13-11-12-11-12-13-12-16-13-24-8-20-5-16-4-20-1-11v-32l2-18 5-21 8-22 10-20 8-13 13-16 9-11h2l2-4 8-7 15-12 11-7 23-12 17-7 22-6z" fill="#68afd7"/>
<path transform="translate(610)" d="m0 0h141l30 6 26 7 26 10 23 11 19 12 18 13 13 11 13 12 7 7 7 8 14 18 8 12 10 16 8 15 11 28 6 18 6 25 4 20v136h-114l-1-1-1-120-3-23-5-17-8-20-11-20-10-13-14-15-11-10-18-12-21-11-17-6-16-4-6-1-17-1-117-1z" fill="#E1A84D"/>
<path transform="translate(0,615)" d="m0 0h114l1 3v102l1 20 3 19 6 21 8 18 9 16 10 14 11 11 7 8 14 11 16 10 16 8 15 6 21 5 21 2 116 1v110h-137l-32-6-22-6-20-7-24-10-15-8-24-16-13-10-14-12-19-19-9-11-12-16-11-17-9-16-9-21-7-19-6-22-6-29z" fill="#E1A84D"/>
<path transform="translate(248)" d="m0 0h141l1 108-1 2-119 1-20 2-17 4-16 6-16 8-19 12-13 11-9 9-1 2h-2l-2 4-7 8-9 14-9 17-8 21-4 17-2 13-1 20v104l-1 2h-114v-138l8-36 6-21 10-25 10-21 14-22 14-19 9-10 7-8 14-14 11-9 13-10 15-10 15-9 14-7 19-8 27-9 21-5z" fill="#C03734"/>
<path transform="translate(819,725)" d="m0 0h31l18 4 15 6 16 10 10 8 10 10 12 17 7 15 5 16 2 15v17l-3 20-7 19-9 15-10 13-8 8-14 10-12 7-17 6-14 3-11 1h-12l-17-2-13-4-12-5-12-7-14-11-9-9-14-21-7-16-4-14-1-6v-30l4-17 5-13 7-13 10-14 7-8 10-8 15-10 16-7 15-4z" fill="#C03734"/>
</svg>
