<?xml version="1.0" encoding="utf-8"?>
<!-- Generator: Adobe Illustrator 24.0.2, SVG Export Plug-In . SVG Version: 6.00 Build 0)  -->
<svg version="1.1" id="Layer_1" xmlns="http://www.w3.org/2000/svg" xmlns:xlink="http://www.w3.org/1999/xlink" x="0px" y="0px"
	 viewBox="0 0 595.3 512" style="enable-background:new 0 0 595.3 512;" xml:space="preserve">
<style type="text/css">
	.st0{fill:#B32B35;}
	.st1{fill:#68AFD7;}
	.st2{fill:#FFFFFF;}
	.st3{fill:#151820;}
	.st4{fill:#ECC19C;}
</style>
<path class="st0" d="M42.6,279c0-14.4,0-28.7,0.4-43.7c1.1-7.4,1.6-14.1,2.7-20.8c3.9-24.4,11.3-47.8,22.2-69.9
	c9.8-20,21.9-38.4,36.7-55.2c14-15.8,29.2-30.1,46.4-42.3c17.4-12.2,36-22.2,55.8-29.8c18.6-7.1,37.7-12.1,57.4-14.4
	c4.1-0.5,8.2-1.3,12.4-2c14.4,0,28.7,0,43.7,0.4c7.4,1.1,14.1,1.6,20.8,2.7c24.4,3.9,47.8,11.3,69.9,22.2
	c20,9.8,38.4,21.9,55.2,36.7c15.8,14,30.1,29.2,42.3,46.4c12.2,17.4,22.2,36,29.8,55.8c7.1,18.6,12.1,37.7,14.4,57.4
	c0.5,4.1,1.3,8.2,2,12.4c0,14.4,0,28.7-0.4,43.7c-1.4,20.4-5.2,39.8-12,58.3c-5.8,15.9-13.1,31.4-20.7,46.6
	c-8.6,17.1-20.1,32.3-33.3,46.1c-9.7,10.2-20,19.9-30.9,28.8c-8.7,7.1-18.6,12.8-28.1,18.7c-14.1-25.9-34.2-45.4-59.2-60.2
	c-9-5.3-16.7-13-24.9-19.6c-2.1-1.7-2-3.7-1.7-6.5c0.8-7.9,0.9-15.9,0.3-23.8c-0.2-2.6-3.3-5-4.9-7.7c11.1-9.3,21.9-18.3,33-27.5
	c0.4-0.4,0.5-0.7,0.7-0.9c0,0.1-0.1,0.1,0.3,0.1c0.5-0.4,0.6-0.8,0.7-1.1c0,0.1-0.1,0.1,0.2,0.4c2.3-0.9,4.4-2,6.3-3.3
	c42.4-30.6,65.1-72.7,68.1-124.3c3.2-55.7-15.7-103.3-59.4-139.2c-33.5-27.5-72.4-38-115.4-30.2c-40.2,7.3-71.6,28.8-94.7,62.1
	c-25.9,37.3-34.9,78.8-27.9,123.5c7.2,45.6,29.6,82.2,67.5,108.9c1.6,1.1,3.6,1.5,5.4,2.3c-0.1,0,0-0.1-0.2,0.2
	c0.3,0.5,0.8,0.6,1.2,0.8c-0.1,0-0.1-0.1-0.1,0.2c0.3,0.5,0.6,0.6,1.2,1c10.6,9.1,21,18,31.2,27.1c-1.8,2.4-4.6,4.4-4.7,6.6
	c-0.5,8.4-1,17,0.2,25.3c0.6,3.9,0.7,6.3-2.2,8.4c-10,7.4-19.9,14.9-30.3,21.7c-22.1,14.4-39.7,32.8-52.4,55.9
	c-1.8-1-3.3-1.6-4.6-2.6c-10.7-7.9-21.6-15.5-31.8-23.9c-16-13.1-29.7-28.6-41.8-45.4c-13-18.1-23.3-37.6-31.1-58.4
	c-6.7-18-11.5-36.5-13.6-55.6C44.1,287.2,43.3,283.1,42.6,279z"/>
<path class="st1" d="M338.7,359.6c1.8,2.5,4.9,4.9,5.1,7.5c0.6,7.9,0.4,15.9-0.3,23.8c-0.3,2.8-0.4,4.8,1.7,6.5
	c8.3,6.6,15.9,14.2,24.9,19.6c25.1,14.9,45.1,34.3,59,60.4c-11.9,6.2-23.5,12.4-35.6,17.6c-19.6,8.4-40.2,13.6-61.5,16.1
	c-4.1,0.5-8.2,1.3-12.4,2c-14,0-28,0-42.8-0.4c-6.1-0.8-11.6-0.8-16.9-1.8c-18.8-3.4-37.6-7.4-55.2-15.1
	c-12.6-5.4-24.6-12.2-36.9-18.3c12.4-23.3,30-41.7,52.1-56.1c10.4-6.8,20.3-14.4,30.3-21.7c2.9-2.1,2.8-4.5,2.2-8.4
	c-1.3-8.3-0.7-16.9-0.2-25.3c0.1-2.2,2.9-4.2,5-6.5c4.4,1.7,8.3,3.7,12.1,5.6c16.6,8.2,33.7,10.1,51.2,3.1
	C326.8,365.6,332.7,362.4,338.7,359.6z"/>
<path class="st2" d="M320.1,513c3.7-0.7,7.8-1.5,11.9-2c21.2-2.5,41.8-7.7,61.5-16.1c12.1-5.2,23.7-11.3,35.7-17.3
	c9.6-6.5,19.5-12.1,28.2-19.2c10.9-8.9,21.1-18.6,30.9-28.8c13.2-13.8,24.7-29,33.3-46.1c7.6-15.2,14.9-30.6,20.7-46.6
	c6.7-18.5,10.5-37.8,12-57.8c0.4,77.7,0.4,155.6,0.4,233.8C476.6,513,398.6,513,320.1,513z"/>
<path class="st2" d="M276.2,1c-3.7,0.7-7.8,1.5-11.9,2c-19.8,2.3-38.9,7.3-57.4,14.4c-19.9,7.6-38.4,17.5-55.8,29.8
	c-17.2,12.1-32.4,26.5-46.4,42.3c-14.8,16.7-26.9,35.2-36.7,55.2c-10.9,22.2-18.3,45.5-22.2,69.9c-1.1,6.6-1.6,13.4-2.7,20.3
	C42.6,157.1,42.6,79.1,42.6,1C120.3,1,198,1,276.2,1z"/>
<path class="st2" d="M554.6,234.5c-0.7-3.7-1.5-7.8-2-11.9c-2.3-19.8-7.3-38.9-14.4-57.4c-7.6-19.9-17.5-38.4-29.8-55.8
	C496.4,92.1,482,76.9,466.2,63C449.5,48.1,431,36,411.1,26.2C388.9,15.4,365.6,7.9,341.2,4c-6.6-1.1-13.4-1.6-20.3-2.7
	C398.6,1,476.5,1,554.6,1C554.6,78.7,554.6,156.4,554.6,234.5z"/>
<path class="st2" d="M167.5,477.3c12.6,6.3,24.7,13.1,37.2,18.5c17.6,7.6,36.4,11.7,55.2,15.1c5.3,1,10.8,1,16.5,1.8
	C198.7,513,120.8,513,42.6,513c0-77.7,0-155.4,0-233.5c0.7,3.7,1.5,7.8,2,11.9c2.1,19.1,6.9,37.6,13.6,55.6
	c7.7,20.8,18.1,40.3,31.1,58.4c12.1,16.9,25.7,32.3,41.8,45.4c10.3,8.4,21.2,16,31.8,23.9C164.2,475.7,165.7,476.3,167.5,477.3z"/>
<path class="st3" d="M223.8,330c-1.8-0.7-3.9-1.2-5.5-2.3c-37.9-26.7-60.3-63.4-67.5-108.9c-7-44.6,1.9-86.2,27.9-123.5
	c23.2-33.3,54.6-54.8,94.7-62.1c43-7.8,81.9,2.7,115.4,30.2c43.6,35.9,62.6,83.5,59.4,139.2c-3,51.7-25.7,93.7-68.1,124.3
	c-1.9,1.4-4,2.4-6.2,3c7.9-13.1,17-25.1,24-38.3c10.4-19.5,14.7-40.9,14.7-63c0-13.8,0-27.6,0-41.5c-76.2,0-151.9,0-227.9,0
	c0,12.9,0.1,25.5,0,38.2c-0.4,32.5,9,62,27.5,88.6C215.9,319.4,219.9,324.7,223.8,330z"/>
<path class="st4" d="M223.7,330c-3.8-5.4-7.8-10.6-11.6-16.1c-18.5-26.6-27.8-56.1-27.5-88.6c0.1-12.6,0-25.2,0-38.2
	c76.1,0,151.7,0,227.9,0c0,13.9,0,27.7,0,41.5c0,22.2-4.4,43.5-14.7,63c-7,13.1-16.1,25.1-24.3,38c-0.1,0.3,0.1,0.3-0.2,0.3
	c-0.5,0.3-0.6,0.7-0.8,1c0,0,0.1,0-0.1,0c-0.4,0.3-0.6,0.6-0.7,0.9c-10.8,9.1-21.7,18.1-32.8,27.4c-6.3,3-12.1,6.2-18.3,8.7
	c-17.5,7-34.6,5.1-51.2-3.1c-3.9-1.9-7.7-3.9-11.9-5.9c-10.7-8.9-21.1-17.8-31.7-27.1c-0.6-0.7-0.9-0.9-1.2-1c0,0,0,0.1,0-0.2
	c-0.3-0.5-0.6-0.7-1-0.8C223.7,329.9,223.7,330,223.7,330z"/>
<path class="st3" d="M223.5,330.2c0.5-0.2,0.8,0,1.2,0.5C224.3,330.9,223.8,330.7,223.5,330.2z"/>
<path class="st3" d="M372.9,331c-0.2-0.3,0-0.7,0.4-1.1C373.5,330.3,373.4,330.7,372.9,331z"/>
<path class="st3" d="M224.6,331.2c0.3-0.1,0.6,0.1,1,0.5C225.2,331.8,224.9,331.6,224.6,331.2z"/>
<path class="st3" d="M372,331.9c-0.1-0.2,0-0.6,0.4-0.9C372.5,331.2,372.4,331.5,372,331.9z"/>
</svg>
