<?xml version="1.0" encoding="utf-8"?>
<!-- Generator: Adobe Illustrator 24.0.2, SVG Export Plug-In . SVG Version: 6.00 Build 0)  -->
<svg version="1.1" id="Layer_1" xmlns="http://www.w3.org/2000/svg" xmlns:xlink="http://www.w3.org/1999/xlink" x="0px" y="0px"
	 viewBox="0 0 81 74" style="enable-background:new 0 0 81 74;" xml:space="preserve">
<style type="text/css">
	.st0{fill:none;stroke:#FFFFFF;stroke-miterlimit:10;}
	.st1{fill:#959695;}
	.st2{fill:#FFFFFF;}
</style>
<g transform="translate(0.000000,74.000000) scale(0.100000,-0.100000)">
</g>
<g>
	<path class="st0" d="M20,28.7l-4.1,3.4c-1.6,1.1-2.6,2.9-2.7,4.9L13,42.8c-0.2,3.5-1.3,6.8-3.2,9.7l-4.9,7.4
		c-1.5,2.3-2.2,5-2.1,7.7h0c0.1,0.9,0.5,1.8,1.2,2.3h0c2.1,1.6,4.6,2.5,7.2,2.9h0c1.4,0.2,2.8,0.2,4.1-0.1l8.5-1.3
		c1.8-0.3,3.6-0.7,5.4-1.2l12.9-3.8c2.9-0.9,6-1.4,9-1.6L62,64.1c3.7-0.3,7.3-1.8,10-4.3l0,0c2.3-2.1,3.9-4.8,4.7-7.8l0.4-1.6
		c0.8-2.9,1.2-5.8,1.2-8.7v-6.9c0-2.4-1.2-4.7-3.2-6l-0.6-0.4"/>
	<path class="st1" d="M47.2,2.2V64l0,0C63.2,64,76.1,51,76.1,35.1v-2C76.1,16.8,63.5,3.3,47.2,2.2L47.2,2.2z"/>
	<path class="st2" d="M47.2,2.2V64l0,0C31.3,64,18.3,51,18.3,35.1v-2C18.3,16.8,31,3.3,47.2,2.2L47.2,2.2z"/>
	<path class="st2" d="M58.9,33.5H47.2v-3.9h11.6c1.1,0,1.9,0.9,1.9,1.9v0C60.8,32.7,59.9,33.5,58.9,33.5z"/>
	<path class="st2" d="M58.9,39.1H47.2v-3.9h11.6c1.1,0,1.9,0.9,1.9,1.9v0C60.8,38.3,59.9,39.1,58.9,39.1z"/>
	<path class="st2" d="M58.9,45.4H47.2v-3.9h11.6c1.1,0,1.9,0.9,1.9,1.9v0C60.8,44.5,59.9,45.4,58.9,45.4z"/>
	<path class="st2" d="M58.9,50.7H47.2v-3.9h11.6c1.1,0,1.9,0.9,1.9,1.9v0C60.8,49.8,59.9,50.7,58.9,50.7z"/>
	<path class="st1" d="M35.6,33.5h11.6v-3.9H35.6c-1.1,0-1.9,0.9-1.9,1.9v0C33.7,32.7,34.6,33.5,35.6,33.5z"/>
	<path class="st1" d="M35.6,39.1h11.6v-3.9H35.6c-1.1,0-1.9,0.9-1.9,1.9v0C33.7,38.3,34.6,39.1,35.6,39.1z"/>
	<path class="st1" d="M35.6,45.4h11.6v-3.9H35.6c-1.1,0-1.9,0.9-1.9,1.9v0C33.7,44.5,34.6,45.4,35.6,45.4z"/>
	<path class="st1" d="M35.6,50.7h11.6v-3.9H35.6c-1.1,0-1.9,0.9-1.9,1.9v0C33.7,49.8,34.6,50.7,35.6,50.7z"/>
</g>
</svg>
