<?xml version="1.0" encoding="utf-8"?>
<!-- Generator: Adobe Illustrator 24.0.2, SVG Export Plug-In . SVG Version: 6.00 Build 0)  -->
<svg version="1.1" id="Layer_1" xmlns="http://www.w3.org/2000/svg" xmlns:xlink="http://www.w3.org/1999/xlink" x="0px" y="0px"
	 viewBox="0 0 462.6 507.7" style="enable-background:new 0 0 462.6 507.7;" xml:space="preserve">
<style type="text/css">
	.st0{fill:#FFFFFF;}
</style>
<path d="M-18.2,263.3c0.1,0,0.2,0.2,0.2,0.5C-18.2,263.9-18.3,263.7-18.2,263.3z"/>
<path id="XMLID_1_" d="M453.2,374.2l-45-128.6c-8.8-24.1-25.5-43.1-72.8-43.1H127.1c-47.3,0.3-64.3,19.2-73.1,43.4l-45,128.7
	c-3.2,8.1-5.2,27.1,13.4,39.5L128.4,484c15.4,10.1,36.2,5.8,46.7-9.5c10.1-15.4,5.8-36.2-9.5-46.7l-50.9-33.6l-33.3-21.8l23.8-65.3
	h32.7l-19.2,52.8l64,42.1c14.3,9.5,24.1,23.8,27.8,40.8c3.6,17,0,33.9-9.5,48.4c-3.9,5.8-8.5,10.8-13.7,14.7h88.5
	c-5.2-4.3-9.8-9.2-13.7-14.7c-9.5-14.3-12.7-31.6-9.5-48.4c3.6-17,13.4-31.3,27.8-40.8l64-42.1l-19.6-53.2h32.7l23.8,65.3L348,393.8
	l-51,33.6c-15.4,10.1-19.9,31-9.5,46.7c10.1,15.4,31,19.9,46.7,9.5l106.1-69.9C458.4,401.4,456.5,382.8,453.2,374.2 M227.4,181.2
	h-8.6c-47,0-85.1-38.1-85.1-85.1v-7.6c0-47,38.1-85.1,85.1-85.1h8.6c47,0,85.1,38.1,85.1,85.1v7.6
	C312.5,143.1,274.4,181.2,227.4,181.2z"/>
<path class="st0" d="M286.8,369.3c-13.3,5.7-25-0.1-27.9-13.4c-2.5-11.6-4.9-23.2-8.3-34.8c-2.3,9.4-4.5,18.7-6.8,28.1
	c-0.7,3-1.3,6-2.2,8.9c-2.4,8-9.6,13.2-18,13.1c-8.3-0.1-15.8-5.7-17.8-13.4c-2-7.5,1.5-15.7,8.5-19.7c7-4,16.3-3,22.4,2.6
	c0.9,0.8,1.4,1.9,3,4c1.6-6.5,2.3-11.7,4.2-16.5c7.1-17.4,2-34.2-2-51.1c-3.6-15.5-7-31.1-10.5-46.6c-0.2-1-0.8-2-0.6-3
	c0.2-1.2,0.9-2.3,1.4-3.4c1.1,0.8,2.9,1.4,3.2,2.4c1.4,4.7,2.3,9.6,3.4,14.3c3.6,16,7.2,32.1,10.8,48.1c0.3,1.5,0.8,2.9,2.4,4.5
	c3.2-12.7,6.4-25.4,9.7-38c2.3-9,4.4-18.1,6.9-27.1c0.4-1.4,2.1-2.5,3.2-3.8c0.5,1.7,1.6,3.6,1.3,5.1c-6.1,25-12.4,50-18.6,75
	c-0.3,1.1-0.8,2.4-0.6,3.5c2.4,11.7,4.9,23.5,7.3,34.9c4.3-2.2,7.9-5.1,12.1-6.2c8.7-2.3,17.3,2.1,21,9.8
	C298.3,354.4,295.6,362.8,286.8,369.3 M291.1,352c-2.3-7.1-6.3-10.7-12.6-11.2c-5.6-0.4-11,2.6-13.3,7.4c-2.4,5-1.6,10.7,2.4,14.6
	c4.1,4,8.9,5.3,14.5,3.4C287.9,364.2,290.8,359.8,291.1,352 M210.8,349.5c-2.1,10.6,6.5,19.1,16.7,16.3c6.2-1.7,10.2-7.1,9.9-13.3
	c-0.3-5.9-4.7-10.9-10.8-12.2C220.3,339,214.5,342.1,210.8,349.5z"/>
<g>
	<path class="st0" d="M195.1,370.7c-3.6,1.2-7.1,3.2-10.7,3.2c-1.6,0-4.7-4-4.7-6.1c0-22.4,0.5-44.8,0.9-67.2c0-0.3,0.3-0.6,0.9-2
		c4.7,0.6,9.7,1.2,14.9,2.6c0,4.9-0.1,9-0.2,13.1C195.8,333.1,195.4,351.9,195.1,370.7z"/>
	<path class="st0" d="M196.8,282.3c-3.2,0.3-6.3,0.6-10.1,1c0-2.9,0.3-5.1,0-7.2c-0.2-1.8-0.6-4.1-1.7-5c-3.8-3.1-4.3-7-4-11.4
		c0.3-5.6,0.2-11.3,0.3-16.9c0.2-10.2,5.2-16.1,15.6-18c0.4,2.1,0.5,4,0.5,5.9C197.2,247.8,197,265.1,196.8,282.3z"/>
	<path class="st0" d="M196.5,288c0,3,0,5.5-0.1,8.5c-5.4-0.1-10.4-0.1-16.7-0.2c0.9-3.8,1.1-7.6,2.9-10.4
		C183.9,283.7,194.8,285.7,196.5,288z"/>
</g>
</svg>
