<?xml version="1.0" encoding="utf-8"?>
<!-- Generator: Adobe Illustrator 24.0.2, SVG Export Plug-In . SVG Version: 6.00 Build 0)  -->
<svg version="1.1" id="Layer_1" xmlns="http://www.w3.org/2000/svg" xmlns:xlink="http://www.w3.org/1999/xlink" x="0px" y="0px"
	 viewBox="0 0 438 492" style="enable-background:new 0 0 438 492;" xml:space="preserve">
<g id="SVGRepo_bgCarrier">
</g>
<g id="SVGRepo_tracerCarrier">
</g>
<path id="XMLID_1_" d="M431.4,359.9l-43.1-123.1c-8.4-23.1-24.4-41.3-69.7-41.3H119.2c-45.3,0.3-61.6,18.4-70,41.6L6.1,360.3
	c-3.1,7.8-5,25.9,12.8,37.8l101.6,66.9c14.7,9.7,34.7,5.6,44.7-9.1c9.7-14.7,5.6-34.7-9.1-44.7L107.4,379l-31.9-20.9l22.8-62.5h31.3
	l-18.4,50.6l61.3,40.3c13.7,9.1,23.1,22.8,26.6,39.1c3.4,16.3,0,32.5-9.1,46.3c-3.7,5.6-8.1,10.3-13.1,14.1h84.7
	c-5-4.1-9.4-8.8-13.1-14.1c-9.1-13.7-12.2-30.3-9.1-46.3c3.4-16.3,12.8-30,26.6-39.1l61.3-40.3l-18.8-50.9h31.3l22.8,62.5
	l-31.9,20.9l-48.8,32.2c-14.7,9.7-19.1,29.7-9.1,44.7c9.7,14.7,29.7,19.1,44.7,9.1l101.6-66.9C436.4,385.9,434.6,368.1,431.4,359.9
	 M238.6,75.2c-4.7,10.3-15.3,17.8-27.5,17.8c-12.2,0-22.8-7.2-27.5-17.8H128c-0.9,5-1.6,10-1.6,15c0,46.9,38.1,85,85,85
	s85-38.1,85-85c0-5.3-0.6-10.3-1.6-15C294.9,75.2,238.6,75.2,238.6,75.2z M181.7,55.2c3.4-13.1,15.3-23.1,29.4-23.1
	s26.2,9.7,29.4,23.1h48.1c-13.4-29.4-42.8-50-77.2-50s-63.8,20.3-77.2,50H181.7z"/>
</svg>
