<?xml version="1.0" encoding="utf-8"?>
<!-- Generator: Adobe Illustrator 24.0.2, SVG Export Plug-In . SVG Version: 6.00 Build 0)  -->
<svg version="1.1" xmlns="http://www.w3.org/2000/svg" xmlns:xlink="http://www.w3.org/1999/xlink" x="0px" y="0px"
	 viewBox="0 0 117.7 233.4" style="enable-background:new 0 0 117.7 233.4;" xml:space="preserve">
<style type="text/css">
	.st0{display:none;}
	.st1{display:inline;}
	.st2{fill:#68AFD7;}
	.st3{fill:#FFFFFF;}
	.st4{fill:#B32B35;}
</style>
<g id="Layer_6" class="st0">
	<g class="st1">
		<rect x="-7.1" y="-4.5" width="177.4" height="258.7"/>
	</g>
</g>
<g id="Layer_3">
	<g>
		<path class="st2" d="M79.9,232c-9.7,0-17.6-7.9-17.6-17.6v-77.9h-0.1v77.9c0,9.7-7.9,17.6-17.6,17.6s-17.6-7.9-17.6-17.6V51.4h9.1
			l-0.9-2.9h12.6V45c-8.8-4.2-14.2-11.9-14.2-20.2c0-12.9,12.9-23.4,28.7-23.4c15.8,0,28.7,10.5,28.7,23.4c0,8.3-5.4,16-14.2,20.2
			v3.5h19.7c10.7,0,19.6,8.7,19.9,19.4l0,55.3c0,4.8-4.3,8.8-9.5,8.8c-4.7,0-8.6-3.1-9.4-7.2v89.7C97.5,224.2,89.6,232,79.9,232z"/>
		<path class="st3" d="M62.3,2.9c15,0,27.2,9.8,27.2,22c0,8.3-5.7,15.6-14.2,19.3v5.8h21.1c10.1,0,18.2,8.1,18.5,18.1l0,55.2
			c0,4.1-3.6,7.3-8.1,7.3c-4.5,0-8.1-3.3-8.1-7.3V68.4h-2.7v57.9v8.8v79.3c0,8.9-7.2,16.1-16.1,16.1c-8.9,0-16.1-7.2-16.1-16.1
			v-79.3h-2.9v79.3c0,8.9-7.2,16.1-16.1,16.1h0c-8.9,0-16.1-7.2-16.1-16.1v-79.3v-8.8c0-21.2,0-73.3,0-73.5h9.6l-0.9-2.9h12.1v-5.8
			c-8.5-3.7-14.2-11-14.2-19.3C35.1,12.7,47.3,2.9,62.3,2.9 M62.3,0C45.7,0,32.2,11.1,32.2,24.8c0,8.6,5.4,16.6,14.2,21.1v1.2h-9.3
			h-3.9l0.9,2.9h-5.7h-2.8v2.8v73.5v8.8v79.3c0,10.5,8.5,19,19,19c8,0,14.8-4.9,17.6-11.9c2.8,7,9.6,11.9,17.6,11.9
			c10.5,0,19-8.5,19-19v-79.3v-5c2,2,4.8,3.2,7.9,3.2c6,0,10.9-4.6,10.9-10.2l0-55.2v0l0,0c-0.3-11.5-9.8-20.8-21.3-20.8H78.2v-1.2
			c8.8-4.5,14.2-12.4,14.2-21.1C92.4,11.1,78.9,0,62.3,0L62.3,0z"/>
	</g>
</g>
<g id="Layer_5">
	<g>
		<path class="st2" d="M14.6,110.3c-7.2,0-13.1-5.9-13.1-13.1V68.4c0-9.9,7.1-18.1,16.9-19.6l0.7,2.7c-1,0.3-1.6,1.3-1.6,2.3v53.7
			h36.8L49,91.2h12.5c5.2,0,9.5,3.9,9.8,8.9c0.2,2.7-0.8,5.2-2.6,7.1c-1.8,1.9-4.3,3-6.9,3H14.6z"/>
		<path class="st3" d="M18.5,50.2c-1.5,0.5-2.5,1.9-2.5,3.6v55.1h40.2L51,92.6h10.6c4.3,0,8.1,3.3,8.4,7.6c0.3,4.7-3.4,8.6-8.1,8.6
			H14.6c-6.4,0-11.7-5.2-11.7-11.7V68.4C2.9,59.2,9.7,51.5,18.5,50.2 M18.1,47.4C7.7,49,0.1,57.8,0.1,68.4v28.8
			c0,8,6.5,14.5,14.5,14.5h47.3c3,0,5.9-1.3,8-3.4c2.1-2.2,3.1-5.1,3-8.2c-0.3-5.8-5.3-10.3-11.2-10.3H51h-3.9l1.2,3.7l4,12.5H18.8
			V53.8c0-0.5,0.4-0.8,0.7-0.9L18.1,47.4L18.1,47.4z"/>
	</g>
	<g>
		<path class="st4" d="M14.6,110.3V53.8c0-2.2,1.4-4.2,3.5-4.9l0.1,0l0.1,0c1.1-0.2,2.1-0.3,3.1-0.3h16.8l19.9,61.7H14.6z"/>
		<path class="st3" d="M37.2,49.9l6,18.5L51,92.6l5.2,16.2H16V53.8c0-1.7,1.1-3.1,2.5-3.6c0.9-0.1,1.9-0.2,2.8-0.2H37.2 M39.3,47.1
			h-2.1H21.4c-1,0-2.1,0.1-3.3,0.3l-0.3,0l-0.3,0.1c-2.6,1-4.4,3.5-4.4,6.3v55.1v2.8H16h40.2h3.9l-1.2-3.7l-5.2-16.2l-7.8-24.2
			l-6-18.5L39.3,47.1L39.3,47.1z"/>
	</g>
</g>
</svg>
