<?xml version="1.0" encoding="utf-8"?>
<!-- Generator: Adobe Illustrator 24.0.2, SVG Export Plug-In . SVG Version: 6.00 Build 0)  -->
<svg version="1.1" id="Layer_1" xmlns="http://www.w3.org/2000/svg" xmlns:xlink="http://www.w3.org/1999/xlink" x="0px" y="0px"
	 viewBox="0 0 573 93.6" style="enable-background:new 0 0 573 93.6;" xml:space="preserve">
<style type="text/css">
	.st0{fill:#00b2ff;}
	.st1{fill:#c0392b;}
	.st2{fill:#FFFFFF;}
</style>
<path class="st0" d="M573,93.6H46.9c-25.8,0-46.7-20.9-46.7-46.7l0,0c0-25.8,20.9-46.7,46.7-46.7H573V93.6z"/>
<path class="st1" d="M46.8,93.6L46.8,93.6C21.1,93.6,0.2,72.8,0.2,47v-0.2C0.2,21,21.1,0.2,46.8,0.2l0,0c25.8,0,46.6,20.9,46.6,46.6
	V47C93.5,72.8,72.6,93.6,46.8,93.6z"/>
<path class="st2" d="M46.8,21.4L46.8,21.4c-9.2,0-16.6,7.4-16.6,16.6v31c0,1.9,1.5,3.4,3.4,3.4H60c1.9,0,3.4-1.5,3.4-3.4V38
	C63.4,28.8,56,21.4,46.8,21.4z M57.4,38.7c0,1.9-1.5,3.4-3.4,3.4H39.7c-1.9,0-3.4-1.5-3.4-3.4v-1.2C36.3,31.7,41,27,46.8,27
	s10.6,4.7,10.6,10.6V38.7z"/>
</svg>
