<?xml version="1.0" encoding="utf-8"?>
<!-- Generator: Adobe Illustrator 24.0.2, SVG Export Plug-In . SVG Version: 6.00 Build 0)  -->
<svg version="1.1" id="Layer_1" xmlns="http://www.w3.org/2000/svg" xmlns:xlink="http://www.w3.org/1999/xlink" x="0px" y="0px"
	 viewBox="0 0 259 265.6" style="enable-background:new 0 0 259 265.6;" xml:space="preserve">
<style type="text/css">
	.st0{display:none;}
	.st1{display:inline;}
	.st2{fill:#68AFD7;}
</style>
<g id="Layer_1_1_" class="st0">
	<g transform="translate(0.000000,512.000000) scale(0.100000,-0.100000)" class="st1">
		<path d="M3162.6,4671.4c0,233-4,351-12,378c-6,22-31,62-55,88c-76,85-12,80-1057,79c-641-1-932-4-956-12c-49-16-133-102-148-153
			c-17-60-17-3128,0-3188c16-55,99-138,154-154c31-9,267-12,956-12c1038,0,975-5,1051,80c57,64,67,101,67,264 M3002.6,2052.4
			c0-142-1-147-25-170l0,0c-15.3-16-36.5-25-58.7-25h-876.3h-876.3c-22.1,0-43.3,9-58.7,25l0,0l0,0c-16,15.3-25,36.5-25,58.7v1516.3
			v1551l25,24l24,25h911h911l24-25l25-24"/>
		<path d="M1242.6,4817.4v-80h800h800v80v80h-800h-800L1242.6,4817.4L1242.6,4817.4z"/>
		<path d="M1402.6,4097.4v-160h80h80v80v80h80h80v80v80h-160h-160V4097.4z"/>
		<path d="M2362.6,4177.4v-80h80h80v-80v-80h80h80v160v160h-160h-160V4177.4z"/>
		<path d="M1722.6,3817.4v-120h120h120v120v120h-120h-120V3817.4z M1882.6,3817.4v-40h-40h-40v40v40h40h40V3817.4z"/>
		<path d="M2122.6,3817.4v-120h120h120v120v120h-120h-120V3817.4z M2282.6,3817.4v-40h-40h-40v40v40h40h40V3817.4z"/>
		<path d="M1722.6,3417.4v-120h120h120v120v120h-120h-120V3417.4z M1882.6,3417.4v-40h-40h-40v40v40h40h40V3417.4z"/>
		<path d="M2122.6,3497.4v-40h40h40v-40v-40h-40h-40v-40v-40h40h40v40v40h40h40v-40v-40h40h40v40v40h-40h-40v40v40h40h40v40v40h-40
			h-40v-40v-40h-40h-40v40v40h-40h-40V3497.4z"/>
		<path d="M1402.6,3137.4v-160h160h160v80v80h-80h-80v80v80h-80h-80V3137.4z"/>
		<path d="M2522.6,3217.4v-80h-80h-80v-80v-80h160h160v160v160h-80h-80V3217.4z"/>
		<path d="M1242.6,2257.4v-80h720h720v80v80h-720h-720L1242.6,2257.4L1242.6,2257.4z"/>
		<path d="M1827.6,2072.4c-16-15-25-36-25-55s9-40,25-55c24-25,26-25,215-25s191,0,215,25c16,15,25,36,25,55s-9,40-25,55
			c-24,25-26,25-215,25S1851.6,2097.4,1827.6,2072.4z"/>
	</g>
</g>
<polygon class="st2" points="259,62.7 247.7,62.7 247.7,11.3 196.5,11.3 196.5,0 259,0 "/>
<polygon class="st2" points="11.3,59.4 0,59.4 0,0.6 62.5,0.6 62.5,11.9 11.3,11.9 "/>
<polygon class="st2" points="62.5,265.6 0,265.6 0,203 11.3,203 11.3,254.2 62.5,254.2 "/>
<polygon class="st2" points="259,265.6 196.5,265.6 196.5,254.2 247.7,254.2 247.7,206.9 259,206.9 "/>
<g transform="translate(0.000000,512.000000) scale(0.100000,-0.100000)">
	<path d="M2223.2,3152.4v290.7h-290h-289.9v-290.7v-290.9h289.9h290V3152.4z M1759.3,3152.4v174.4h173.9h173.9v-174.4V2978h-173.9
		h-173.9V3152.4z"/>
	<path d="M1991.3,3152.4v58.1h-57.9h-57.9v-58.1v-58.1h57.9h57.9V3152.4z"/>
	<path d="M1295.2,2919.7v58.1h-116h-116v-58.1v-58.2h116h116V2919.7z"/>
	<path d="M947.2,3152.4v290.7H657.3h-290v-290.7v-290.9h289.9h290L947.2,3152.4L947.2,3152.4z M483.2,3152.4v174.4h173.9H831v-174.4
		V2978H657.1H483.2V3152.4z"/>
	<path d="M715.2,3152.4v58.1h-57.9h-57.9v-58.1v-58.1h57.9h57.9V3152.4z"/>
	<path d="M1527.3,3094.1v116.3h-116h-116v58.1v58.1h-57.9h-58.2v-58.1v-58.1h-57.9h-57.9v-58.1v-58.1h173.9h173.9V3036v-58.1h57.9
		h57.9L1527.3,3094.1L1527.3,3094.1z"/>
	<path d="M1527.3,3385v58.1h-57.9h-57.9V3385v-58.1h57.9h57.9V3385z"/>
	<path d="M1179.2,3501.4v58.1h174h173.9v58.1v58.1h-232h-232v-116.3v-116.3h57.9h57.9v58.4L1179.2,3501.4L1179.2,3501.4z"/>
	<path d="M2223.2,3792.1v232.7h-58h-57.9v-58.1v-58.1h-57.9h-57.9v-58.1v-58.1h57.9h57.9v-116.3v-116.3h57.9h57.9v232.3
		L2223.2,3792.1L2223.2,3792.1z"/>
	<path d="M1991.3,3617.7v58.1h-57.9h-57.9v-58.1v-58.1h57.9h57.9V3617.7z"/>
	<path d="M1759.3,3675.8v116.3h57.9h57.9v116.3v116.4h-57.9h-57.9v-58.1v-58.1h-116h-116v58.1v58.1h-116h-116v-58.1v-58.1h57.9h57.9
		v-58.1v-58.1h116h116v-116.3v-116.3h57.9h57.9v116L1759.3,3675.8L1759.3,3675.8z"/>
	<path d="M831.2,3617.7v58.1h57.9H947v58.1v58.1H715H483v-58.1v-58.1h-57.9h-57.9v-58.1v-58.1h116h116v58.1v58.1h57.9H715v-58.1
		v-58.1h57.9h57.9v58.1H831.2z"/>
	<path d="M1179.2,3908.4v116.4h-57.9h-57.9v-116.3v-116.3h57.9h57.9V3908.4z"/>
	<path d="M947.2,3966.7v58.1h-57.9h-57.9v116.3v116.3h-57.9h-57.9V4083v-174.4h116h116v58.1L947.2,3966.7L947.2,3966.7z"/>
	<path d="M599.2,3966.7v58.1h-116h-116v-58.1v-58.1h116h116V3966.7z"/>
	<path d="M2223.2,4432v290.7h-290h-289.9V4432v-290.7h289.9h290V4432z M1759.3,4432v174.4h173.9h173.9V4432v-174.4h-173.9h-173.9
		V4432z"/>
	<path d="M1991.3,4432v58.1h-57.9h-57.9V4432v-58.1h57.9h57.9V4432z"/>
	<path d="M1527.3,4199.3v58.1h-116h-116v174.4v174.4h116h116v58.1v58.1h-173.9h-174.2v-58.1v-58.1h-116h-116v-58.1V4490h116h116
		v-174.4v-174.4h174h173.9v58.1L1527.3,4199.3L1527.3,4199.3z"/>
	<path d="M1063.2,4257.4v116.3h-58h-58v-116.3v-116.3h57.9h57.9L1063.2,4257.4L1063.2,4257.4z"/>
	<path d="M483.2,4199.3v58.1h-57.9h-57.9v-58.1v-58.1h57.9h57.9V4199.3z"/>
	<path d="M1527.3,4432v58.1h-57.9h-57.9V4432v-58.1h57.9h57.9V4432z"/>
	<path d="M831.2,4548.3v174.4h-57.9h-57.9v-116.3v-116.3h-116h-116V4432v-58.1h173.9h173.9C831.2,4373.9,831.2,4548.3,831.2,4548.3z
		"/>
	<path d="M599.2,4664.6v58.1h-116h-116v-58.1v-58.1h116h116V4664.6z"/>
</g>
</svg>
