<?xml version="1.0" encoding="utf-8"?>
<!-- Generator: Adobe Illustrator 24.0.2, SVG Export Plug-In . SVG Version: 6.00 Build 0)  -->
<svg version="1.1" xmlns="http://www.w3.org/2000/svg" xmlns:xlink="http://www.w3.org/1999/xlink" x="0px" y="0px"
	 viewBox="0 0 141.7 106.3" style="enable-background:new 0 0 141.7 106.3;" xml:space="preserve">
<style type="text/css">
	.st0{display:none;}
	.st1{fill:#C03734;}
	.st2{fill:#FFFFFF;}
	.st3{fill:none;stroke:#C03734;stroke-width:11.3386;}
</style>
<g id="Layer_1" class="st0">
	
		<image style="display:inline;overflow:visible;" width="56" height="42" xlink:href="recuperacionxhdpi.png"  transform="matrix(2.4255 0 0 2.4255 -208.2632 1.8537)">
	</image>
</g>
<g id="Layer_2">
	<circle class="st1" cx="16.8" cy="89" r="14"/>
	<circle class="st2" cx="45" cy="30.2" r="9.5"/>
	<line class="st3" x1="16.8" y1="2.2" x2="16.8" y2="91.1"/>
	<circle class="st1" cx="124.1" cy="89" r="14"/>
	<line class="st3" x1="124.1" y1="22.2" x2="124.1" y2="91.1"/>
	<line class="st3" x1="125.1" y1="55.3" x2="17.1" y2="55.3"/>
	<path class="st2" d="M25.7,47.5"/>
	<path class="st2" d="M28.1,47.5h25.5c0.6,0,1.1-0.5,1.1-1.1v0c0-5-4-9-9-9H32.2c-3.6,0-6.5,2.9-6.5,6.5V45
		C25.7,46.4,26.8,47.5,28.1,47.5z"/>
	<path class="st2" d="M60.3,47.4h52.6c1.5,0,2.7-1.2,2.7-2.7v0c0-1.2-0.8-2.3-2-2.6l-19-5.3c-8.6-2.4-17.5-3.6-26.4-3.6h0
		c-1.9,0-3.9,0.5-5.5,1.5l0,0c-3.3,1.9-5.3,5.5-5.3,9.3v0.5C57.4,46.1,58.7,47.4,60.3,47.4z"/>
</g>
</svg>
