<?xml version="1.0" encoding="utf-8"?>
<!-- Generator: Adobe Illustrator 24.0.2, SVG Export Plug-In . SVG Version: 6.00 Build 0)  -->
<svg version="1.1" xmlns="http://www.w3.org/2000/svg" xmlns:xlink="http://www.w3.org/1999/xlink" x="0px" y="0px"
	 viewBox="0 0 56 48" style="enable-background:new 0 0 56 48;" xml:space="preserve">
<style type="text/css">
	.st0{fill:none;stroke:#FFFFFF;stroke-width:2.5512;stroke-linecap:round;stroke-miterlimit:10;}
	.st1{fill:#FFFFFF;}
	.st2{fill:none;stroke:#C03734;stroke-width:1.0006;stroke-linecap:round;stroke-miterlimit:10;}
</style>
<g id="Layer_1">
</g>
<g id="Layer_2">
	<g>
		<path class="st0" d="M4.7,39.3c0,0,23.6-5.3,43.5-33.6"/>
		<g>
			<circle class="st1" cx="11.5" cy="27.7" r="3.1"/>
			<circle class="st1" cx="18.6" cy="42" r="3.1"/>
			<path class="st2" d="M11.5,28.1c0,0,6.3,5.3,6.9,13.7"/>
		</g>
		<g>
			<circle class="st1" cx="38.4" cy="6.7" r="3.1"/>
			<circle class="st1" cx="49.2" cy="18.4" r="3.1"/>
			<path class="st2" d="M38.6,7c0,0,7.5,3.4,10.4,11.3"/>
		</g>
		<g>
			<circle class="st1" cx="22.6" cy="22.4" r="3.1"/>
			<circle class="st1" cx="30.8" cy="34.8" r="3.1"/>
			<path class="st2" d="M22.7,22.7c0,0,6.1,3.7,7.9,11.9"/>
		</g>
		<g>
			<circle class="st1" cx="31.3" cy="14.9" r="3.1"/>
			<circle class="st1" cx="40.2" cy="25.7" r="3.1"/>
			<path class="st2" d="M31.4,15.2c0,0,6.8,2,8.6,10.3"/>
		</g>
	</g>
</g>
</svg>
