<?xml version="1.0" encoding="utf-8"?>
<!-- Generator: Adobe Illustrator 24.0.2, SVG Export Plug-In . SVG Version: 6.00 Build 0)  -->
<svg version="1.1" id="Layer_1" xmlns="http://www.w3.org/2000/svg" xmlns:xlink="http://www.w3.org/1999/xlink" x="0px" y="0px"
	 viewBox="0 0 37 67.7" style="enable-background:new 0 0 37 67.7;" xml:space="preserve">
<style type="text/css">
	.st0{fill:#FFFFFF;}
	.st1{fill:#C03734;}
</style>
<g>
	<path class="st0" d="M24.4,19.2v5.6H12.6v-5.6h0C6.1,19.2,0.8,24.5,0.8,31v24.3c0,6.5,5.3,11.8,11.8,11.8h11.8
		c6.5,0,11.8-5.3,11.8-11.8V31C36.1,24.5,30.9,19.2,24.4,19.2L24.4,19.2z"/>
	<path class="st1" d="M27.7,40.8H9.2c-0.8,0-1.4-0.6-1.4-1.4V28.4c0-0.8,0.6-1.4,1.4-1.4h18.5c0.8,0,1.4,0.6,1.4,1.4v11.1
		C29.1,40.2,28.4,40.8,27.7,40.8z"/>
	<rect x="15.1" y="0.1" class="st1" width="6.6" height="21.9"/>
	<path class="st1" d="M11.6,45v4.7c0,0.7,0.6,1.2,1.2,1.2h11.2c0.7,0,1.2-0.6,1.2-1.2V45c0-0.7-0.6-1.2-1.2-1.2H12.9
		C12.2,43.8,11.6,44.4,11.6,45z M18.5,49.3c-1,0-1.9-0.8-1.9-1.9c0-1,0.8-1.9,1.9-1.9c1,0,1.9,0.8,1.9,1.9
		C20.3,48.4,19.5,49.3,18.5,49.3z"/>
	<path class="st0" d="M19.2,8.4h-1.5c-0.5,0-0.9-0.4-0.9-0.9V0.1h3.2v7.4C20.1,8,19.7,8.4,19.2,8.4z"/>
</g>
</svg>
