<?xml version="1.0" encoding="utf-8"?>
<!-- Generator: Adobe Illustrator 24.0.2, SVG Export Plug-In . SVG Version: 6.00 Build 0)  -->
<svg version="1.1" xmlns="http://www.w3.org/2000/svg" xmlns:xlink="http://www.w3.org/1999/xlink" x="0px" y="0px"
	 viewBox="0 0 89 63" style="enable-background:new 0 0 89 63;" xml:space="preserve">
<style type="text/css">
	.st0{fill:#FFFFFF;}
	.st1{fill:#C03734;}
	.st2{fill:none;stroke:#FFFFFF;stroke-width:2.2677;stroke-linecap:round;stroke-miterlimit:10;}
</style>
<g id="Layer_1">
</g>
<g id="Layer_2">
	<g>
		<path class="st0" d="M30,33.2l-1.1-0.5c-0.4-0.2-0.6-0.6-0.4-1l2-4.4l2.5,1.2l-2,4.4C30.9,33.2,30.4,33.4,30,33.2z"/>
		<g transform="translate(0.000000,63.000000) scale(0.100000,-0.100000)">
			<path class="st1" d="M486.9,582.8c-49.9-11.7-92.4-46.8-115.4-92.7c-12-24.4-27.7-43.9-34.2-43.9c-14.5,0-33.1-53.9-36.2-90.5
				c-1.4-16.8,17.8-26.8,30.7-15.9c13,10.9,21,27.5,30.4,46.9c4.6,8.8,8.3,31.2,8.3,47.8c-1.8,64.4,83.1,138.5,158.9,138.5
				c82.2-1,198.6-49.8,224.4-96.6c10.2-18.5,15.7-49.8,16.6-90.7c0-51.7,1.8-57.6,9.2-37.1c12.9,31.2,3.7,113.2-15.7,143.4
				c-17.5,30.2-111.8,77.1-178.3,90.7C530.3,593.5,527.5,593.5,486.9,582.8z"/>
		</g>
		<path class="st2" d="M5.2,47l12.4,5.7c17.3,8,37.8,4.4,51.4-9l2.5-2.4c3.3-3.3,5.9-7.2,7.7-11.6l0,0c1.7-4.3,2.5-8.9,2.4-13.5
			l-0.3-6.6"/>
		<path class="st1" d="M20,59.2h-0.5c-3,0-5.4-2.4-5.4-5.4v-0.5c0-3,2.4-5.4,5.4-5.4H20c3,0,5.4,2.4,5.4,5.4v0.5
			C25.4,56.8,23,59.2,20,59.2z"/>
		<path class="st1" d="M84.9,6.7l-0.8,0.1l-0.2-3.4c0-0.4-0.4-0.7-0.9-0.7l-4.3,0.3c-0.5,0-0.8,0.4-0.8,0.8l0.2,3.4l-0.8,0.1
			l0.1,1.1L79,8.2l0.2,2.7l4.1-0.3l-0.1-2.7L85,7.8L84.9,6.7z"/>
		<circle class="st1" cx="43.1" cy="56.3" r="0.9"/>
		<circle class="st1" cx="48.8" cy="55.2" r="0.9"/>
		<circle class="st1" cx="55.9" cy="52.7" r="0.9"/>
		<circle class="st1" cx="63.2" cy="48.7" r="0.9"/>
		<circle class="st1" cx="68.6" cy="44.6" r="0.9"/>
		<circle class="st1" cx="73" cy="40.3" r="0.9"/>
		<circle class="st1" cx="76.5" cy="35.4" r="0.9"/>
		<circle class="st1" cx="79.1" cy="30.1" r="0.9"/>
		<circle class="st1" cx="80.8" cy="23.2" r="0.9"/>
	</g>
</g>
</svg>
