<?xml version="1.0" encoding="utf-8"?>
<!-- Generator: Adobe Illustrator 24.0.2, SVG Export Plug-In . SVG Version: 6.00 Build 0)  -->
<svg version="1.1" id="Layer_1" xmlns="http://www.w3.org/2000/svg" xmlns:xlink="http://www.w3.org/1999/xlink" x="0px" y="0px"
	 viewBox="0 0 123.7 130.6" style="enable-background:new 0 0 123.7 130.6;" xml:space="preserve">
<style type="text/css">
	.st0{fill:#C03833;}
	.st1{fill:#FFFFFF;}
</style>
<g id="Layer_1_1_">
	<g>
		<circle class="st0" cx="19.6" cy="62.1" r="10"/>
		<path class="st1" d="M119.8,16.4c-3.4-5.9-9.2-10.1-15.9-11.5l-2-0.4c-0.7-2.3-2.8-3.9-5.3-3.9c-3,0-5.5,2.5-5.5,5.5
			s2.5,5.5,5.5,5.5c0.8,0,1.5-0.2,2.2-0.5l3.6,0.8c4.8,1,8.8,3.9,11.3,8.2c2.5,4.2,3,9.1,1.6,13.8c-2.5,8.2-6.6,15.8-12,22.3
			c-0.5,0-1.1,0.2-1.5,0.6c-2.9,3.3-6.1,6.4-9.5,9.1L89.6,68H77.3l-2.7-2.1c-3.5-2.7-6.7-5.7-9.5-9.1c-0.4-0.4-0.9-0.7-1.5-0.6
			c-5.4-6.5-9.5-14.1-12-22.3c-1.4-4.7-0.9-9.6,1.6-13.8s6.5-7.1,11.3-8.2L68,11c0.7,0.3,1.4,0.5,2.2,0.5c3,0,5.5-2.5,5.5-5.5
			s-2.5-5.5-5.5-5.5c-2.5,0-4.6,1.7-5.3,3.9l-2,0.4C56.3,6.3,50.5,10.5,47,16.4c-3.4,5.9-4.3,13-2.2,19.5
			c2.8,9.1,7.3,17.5,13.3,24.8c-0.1,0.5,0,1.1,0.4,1.5c3.3,3.8,6.9,7.3,10.9,10.4l10.3,8v19.2c0,12.5-10.2,22.8-22.8,22.8h-11
			c-12.5,0-22.8-10.2-22.8-22.8V80.6c8.7-1.7,15.2-9.3,15.2-18.5c0-10.4-8.4-18.8-18.8-18.8S0.8,51.7,0.8,62.1
			c0,9.2,6.6,16.8,15.3,18.5v19.2c0,16.5,13.4,29.8,29.8,29.8H57c16.5,0,29.8-13.4,29.8-29.8v-19l10.6-8.2c4-3.1,7.6-6.6,10.9-10.4
			c0.4-0.4,0.5-1,0.4-1.5c6-7.3,10.5-15.6,13.3-24.8C124,29.3,123.2,22.2,119.8,16.4z M7.8,62.1c0-6.5,5.3-11.8,11.8-11.8
			s11.8,5.3,11.8,11.8s-5.3,11.8-11.8,11.8S7.8,68.6,7.8,62.1z"/>
	</g>
</g>
</svg>
