<?xml version="1.0" encoding="utf-8"?>
<!-- Generator: Adobe Illustrator 24.0.2, SVG Export Plug-In . SVG Version: 6.00 Build 0)  -->
<svg version="1.1" id="Layer_1" xmlns="http://www.w3.org/2000/svg" xmlns:xlink="http://www.w3.org/1999/xlink" x="0px" y="0px"
	 viewBox="0 0 573 93.6" style="enable-background:new 0 0 573 93.6;" xml:space="preserve">
<style type="text/css">
	.st0{fill:#68AFD7;}
	.st1{fill:#B32B35;}
	.st2{fill:#FFFFFF;}
</style>
<path class="st0" d="M573,93.6H46.9c-25.8,0-46.7-20.9-46.7-46.7l0,0c0-25.8,20.9-46.7,46.7-46.7H573V93.6z"/>
<path class="st1" d="M46.8,93.6L46.8,93.6C21.1,93.6,0.2,72.8,0.2,47v-0.2C0.2,21,21.1,0.2,46.8,0.2l0,0c25.8,0,46.6,20.9,46.6,46.6
	V47C93.5,72.8,72.6,93.6,46.8,93.6z"/>
<path class="st2" d="M58.7,55.6h-5v-4.9l0,0c4.5-4.5,7.1-10.7,7.1-17.1v-7.5c0-2.9-1.2-5.7-3.2-7.8l0,0c-2.1-2.1-4.8-3.2-7.8-3.2h-6
	c-2.9,0-5.7,1.2-7.8,3.2l0,0c-2.1,2.1-3.2,4.8-3.2,7.8v7.5c0,6.4,2.5,12.5,7.1,17.1l0,0v4.9h-5c-5.4,0-10.5,2.1-14.3,5.9l0,0
	c-3.8,3.8-5.9,8.9-5.9,14.3l0,0c0,1.6,1.3,2.9,2.9,2.9H76c1.6,0,2.9-1.3,2.9-2.9l0,0c0-5.4-2.1-10.5-5.9-14.3l0,0
	C69.2,57.7,64.1,55.6,58.7,55.6z"/>
</svg>
