<?xml version="1.0" encoding="utf-8"?>
<!-- Generator: Adobe Illustrator 24.0.2, SVG Export Plug-In . SVG Version: 6.00 Build 0)  -->
<svg version="1.1" id="Layer_1" xmlns="http://www.w3.org/2000/svg" xmlns:xlink="http://www.w3.org/1999/xlink" x="0px" y="0px"
	 viewBox="0 0 156.2 156.4" style="enable-background:new 0 0 156.2 156.4;" xml:space="preserve">
<style type="text/css">
	.st0{fill:#c0392b;}
	.st1{fill:#00b2ff;}
	.st2{fill:none;stroke:#00b2ff;stroke-width:2.8346;stroke-miterlimit:10;}
</style>
<path class="st0" d="M51.4,144.9c-13.8-5.2-24.3-14.1-32.9-25.3c-3.1-4.1-0.1-8,1.8-10.7c2.8-4,6.8-7.6,11.1-9.8
	c7.1-3.7,14.9-6.1,22.7-9.1c0,2.2,0,4.3,0,6.4c-11.4,3.3-14.4,9.4-14.7,21c0,1.5,0,3,0,4.5c0,7.4,0.1,7.5,8.1,5.9
	c-1.5-0.8-3.1-1.7-5.8-3.1c0.7-5.8,0.8-12.6,2.7-18.9c1.7-5.6,8.7-8.1,14.8-6.7c5.7,1.2,10.1,6.8,10.1,12.9c0,4.2,0,8.3,0,12.5
	c0,0.3-0.1,0.6-0.1,0.8c-1.7,0.9-3.4,1.7-6.1,3.1c9,1.4,9.3,1.2,9.3-5.9c0-3.7,0.3-7.4-0.3-10.9c-1.5-8.6-6.5-13.8-15.7-14.7
	c0-1.9-0.1-3.6,0-5.2c0.3-3.9,3.7-5.9,7-3.9c9.5,5.9,18.9,5.7,28.7,0.7c2.1-1.1,5.3-0.2,8.3-0.2c0,4.2-0.1,7.2,0,10.2
	c0.1,3,0.2,5.6-3.1,7.5c-2.8,1.7-2.9,4.6-0.5,7.2c2.5,2.8,5.6,3.2,8.2,0.7c2.4-2.2,2.8-5.1,0-7.5c-5-4.3-1.5-9.9-2.8-14.8
	c0.4-0.4,0.7-0.8,1.1-1.2c9.4,4.8,19.2,9.1,28.1,14.7c3.2,2,5.3,7.1,6.1,11.1c0.5,2.3-1.9,5.8-3.9,8.1
	c-12.4,14.1-27.8,22.5-46.7,25.1C74.7,150.7,63.2,149,51.4,144.9z"/>
<path class="st1" d="M84.8,18.2c5.6,3.1,11.9,5,15.9,9.1c5,5.1,2.4,12.6,2.5,19.1c0,1.3,0.6,2.6,1,3.9c0.3,0.9,1.2,1.9,1,2.6
	c-3.1,10-5.8,20.2-12.8,28.4c-10.7,12.5-23.1,9.8-31.8-3.4c-4.5-6.9-6.8-15.2-10.1-22.8c-0.3-0.7-0.5-1.9-0.1-2.4
	c4.4-5.3,1.3-11.4,1.8-17.1c0.5-5.7,2.8-9.3,7.5-12.5c5.4-3.6,10.5-7.3,17.4-6.1C79.6,17.3,82,17.7,84.8,18.2z"/>
<path class="st1" d="M149.4,14.3c1.8,2.5,3.6,5.4,5.7,8.5c0.3,36.9,0.3,73.5,0.3,110.7c-2,4.2-3.8,8.2-6.2,11.7
	c-1.2,1.7-3.4,2.8-5.5,4c8.6-8.8,11-19.5,10.8-31.7c-0.5-26.5-0.3-53,0-79.4C154.5,29.7,153.3,22,149.4,14.3z"/>
<path class="st2" d="M124.2,154.9H32c-16.9,0-30.6-13.7-30.6-30.6V32C1.4,15.1,15.1,1.5,32,1.5h92.2c16.9,0,30.6,13.7,30.6,30.6
	v92.4C154.8,141.3,141.1,154.9,124.2,154.9z"/>
</svg>
